<svg xmlns="http://www.w3.org/2000/svg" width="32" height="32" viewBox="0 0 32 32"><g transform="translate(-6027 12655)"><rect width="32" height="32" transform="translate(6027 -12655)" fill="none"/><g transform="translate(6029.651 -12652.35)"><circle cx="13.349" cy="13.349" r="13.349" transform="translate(0 0)" fill="#f15249"/><path d="M147.2,159.58l7.2,7.2a13.28,13.28,0,0,0,11.623-11.538L158.78,148Z" transform="translate(-139.452 -140.21)" fill="#ad0e0e"/><path d="M138.275,134.149a1.577,1.577,0,0,1,0,2.19l-1.179,1.179a1.577,1.577,0,0,1-2.19,0l-9.264-9.264a1.577,1.577,0,0,1,0-2.19l1.221-1.221a1.577,1.577,0,0,1,2.19,0Z" transform="translate(-118.61 -117.852)" fill="#fff"/><path d="M219.411,216,216,219.411l4.927,4.885a1.577,1.577,0,0,0,2.19,0l1.221-1.221a1.577,1.577,0,0,0,0-2.19Z" transform="translate(-204.63 -204.63)" fill="#d6d6d6"/><path d="M134.907,125.642a1.577,1.577,0,0,1,2.19,0l1.221,1.221a1.577,1.577,0,0,1,0,2.19l-9.306,9.222a1.577,1.577,0,0,1-2.19,0l-1.179-1.179a1.577,1.577,0,0,1,0-2.19Z" transform="translate(-118.61 -118.61)" fill="#fff"/></g></g></svg>