<svg xmlns="http://www.w3.org/2000/svg" width="32" height="32" viewBox="0 0 32 32"><g transform="translate(-6027 12655)"><rect width="32" height="32" transform="translate(6027 -12655)" fill="none"/><g transform="translate(6006.664 -12663.813)"><path d="M32.819,26.709H29.173c-.589,0-.773-.221-.773-.773V21.48c0-.589.221-.773.773-.773h3.646V17.465a8.18,8.18,0,0,1,.994-4.161,6.111,6.111,0,0,1,3.278-2.725,8.193,8.193,0,0,1,2.836-.479h3.609c.516,0,.737.221.737.737v4.2c0,.516-.221.737-.737.737-.994,0-1.989,0-2.983.037a1.33,1.33,0,0,0-1.51,1.51c-.037,1.1,0,2.173,0,3.314h4.272c.589,0,.81.221.81.81V25.9c0,.589-.184.773-.81.773H39.043V38.678c0,.626-.184.847-.847.847h-4.6c-.552,0-.773-.221-.773-.773V26.709Z" transform="translate(0)" fill="#7a5f63"/></g></g></svg>