<svg xmlns="http://www.w3.org/2000/svg" xmlns:xlink="http://www.w3.org/1999/xlink" width="270" height="270" viewBox="0 0 270 270"><defs><linearGradient id="a" x1="0.5" y1="1" x2="0.5" gradientUnits="objectBoundingBox"><stop offset="0" stop-color="#f6f0ea"/><stop offset="1" stop-color="#f1dfd1"/></linearGradient><linearGradient id="b" x1="0.967" y1="0.78" x2="0.001" y2="0.185" gradientUnits="objectBoundingBox"><stop offset="0" stop-color="#feb692"/><stop offset="1" stop-color="#ea5455"/></linearGradient><linearGradient id="c" x1="0.79" y1="1.358" x2="0.206" y2="0.312" xlink:href="#b"/><linearGradient id="d" x1="0.946" y1="1.148" x2="0.139" y2="0.313" xlink:href="#b"/><linearGradient id="e" x1="0.932" y1="0.749" x2="0.068" y2="0.249" xlink:href="#b"/></defs><g transform="translate(-5702 14799)"><rect width="270" height="270" transform="translate(5702 -14799)" fill="none"/><g transform="translate(254 -9)"><rect width="112" height="112" transform="translate(5527 -14711)" fill="none"/><g transform="translate(5535.382 -14698.992)"><g transform="translate(15.888 0)"><path d="M62.879,13.48V49.4a13.106,13.106,0,0,1-1.4,5.895L53.9,46.963l-6.268-6.877c-1.69-1.847-4.225-3.164-6.347-2.319a42.463,42.463,0,0,0-6.465,4.578L29.475,36.45a7.251,7.251,0,0,0-10.748,0L8.98,47.159,1.454,55.491A13.165,13.165,0,0,1,0,49.4V13.48A13.48,13.48,0,0,1,13.48,0H49.4a13.48,13.48,0,0,1,13.48,13.48Z" transform="translate(0 0)" fill="url(#a)"/><path d="M44.336,36.915a13.44,13.44,0,0,1-8.43,7.054L22.152,28.741,17.77,23.927a42.463,42.463,0,0,1,6.347-4.578c2.142-.845,4.677.472,6.347,2.319l6.268,6.917Z" transform="translate(17.148 18.418)" fill="url(#b)"/><path d="M52.34,45.648a13.637,13.637,0,0,1-3.616.491H12.766A13.46,13.46,0,0,1,.74,38.751L8.266,30.42,17.992,19.73a7.251,7.251,0,0,1,10.748,0l5.345,5.895,4.382,4.795Z" transform="translate(0.714 16.74)" fill="url(#c)"/><path d="M52.34,45.648a13.637,13.637,0,0,1-3.616.491H12.766A13.46,13.46,0,0,1,.74,38.751L8.266,30.42,17.992,19.73a7.251,7.251,0,0,1,10.748,0l5.345,5.895,4.382,4.795Z" transform="translate(0.714 16.74)" fill="url(#d)"/><circle cx="4.5" cy="4.5" r="4.5" transform="translate(38.16 15.72)" fill="url(#e)"/></g><g transform="translate(0 73.294)"><g transform="translate(0 0)"><path d="M18.641,30.108A1.766,1.766,0,0,1,17.1,29.2l-2.572-4.632v5.539H11V17.765a1.764,1.764,0,0,1,3.306-.858l2.572,4.632V16H20.4V28.344a1.761,1.761,0,0,1-1.321,1.707A1.8,1.8,0,0,1,18.641,30.108Z" transform="translate(-11 -15.999)" fill="#ff5a54"/></g><g transform="translate(11.755 0.002)"><path d="M21.29,30.106H20.114A4.119,4.119,0,0,1,16,25.992V20.114A4.119,4.119,0,0,1,20.114,16H21.29A4.119,4.119,0,0,1,25.4,20.114v5.878A4.119,4.119,0,0,1,21.29,30.106Zm-1.176-10.58a.588.588,0,0,0-.588.588v5.878a.588.588,0,0,0,.588.588H21.29a.588.588,0,0,0,.588-.588V20.114a.588.588,0,0,0-.588-.588Z" transform="translate(-16 -16)" fill="#ff5a54"/></g><g transform="translate(26.449 0.002)"><path d="M22.25,16h3.527V30.106H22.25Z" transform="translate(-22.25 -16)" fill="#ff5a54"/></g><g transform="translate(23.511 0.002)"><path d="M21,16h9.4v3.527H21Z" transform="translate(-21 -16)" fill="#ff5a54"/></g><g transform="translate(85.252 0.003)"><path d="M31.29,38.106H27.763A1.764,1.764,0,0,1,26,36.343V25.763A1.764,1.764,0,0,1,27.763,24H31.29A4.119,4.119,0,0,1,35.4,28.114v5.878A4.119,4.119,0,0,1,31.29,38.106ZM29.527,34.58H31.29a.588.588,0,0,0,.588-.588V28.114a.588.588,0,0,0-.588-.588H29.527Z" transform="translate(-26 -24)" fill="#ff5a54"/></g><g transform="translate(38.231 0.003)"><path d="M9.527,38.106H6V28.114A4.119,4.119,0,0,1,10.114,24H15.4v3.527h-5.29a.588.588,0,0,0-.588.588Z" transform="translate(-6 -24)" fill="#ff5a54"/></g><g transform="translate(38.231 5.881)"><path d="M6,26.5h9.4v3.527H6Z" transform="translate(-6 -26.5)" fill="#ff5a54"/></g><g transform="translate(73.497 0.001)"><path d="M28.641,38.108A1.766,1.766,0,0,1,27.1,37.2l-2.572-4.632v5.539H21V25.765a1.764,1.764,0,0,1,3.306-.858l2.572,4.632V24H30.4V36.344a1.761,1.761,0,0,1-1.321,1.707A1.8,1.8,0,0,1,28.641,38.108Z" transform="translate(-21 -23.999)" fill="#ff5a54"/></g><g transform="translate(49.986 0.003)"><path d="M16.29,38.106H15.114A4.119,4.119,0,0,1,11,33.992V28.114A4.119,4.119,0,0,1,15.114,24H16.29A4.119,4.119,0,0,1,20.4,28.114v5.878A4.119,4.119,0,0,1,16.29,38.106Zm-1.176-10.58a.588.588,0,0,0-.588.588v5.878a.588.588,0,0,0,.588.588H16.29a.588.588,0,0,0,.588-.588V28.114a.588.588,0,0,0-.588-.588Z" transform="translate(-11 -24)" fill="#ff5a54"/></g><g transform="translate(61.741 0.003)"><path d="M21.29,38.106H20.114A4.119,4.119,0,0,1,16,33.992V24h3.527v9.992a.588.588,0,0,0,.588.588H21.29a.588.588,0,0,0,.588-.588V24H25.4v9.992A4.119,4.119,0,0,1,21.29,38.106Z" transform="translate(-16 -24)" fill="#ff5a54"/></g></g></g></g></g></svg>