<svg xmlns="http://www.w3.org/2000/svg" width="32" height="32" viewBox="0 0 32 32"><g transform="translate(-6027 12655)"><rect width="32" height="32" transform="translate(6027 -12655)" fill="none"/><g transform="translate(6028.905 -12653.095)"><path d="M19.792,0H8.4A8.408,8.408,0,0,0,0,8.4V19.792a8.408,8.408,0,0,0,8.4,8.4H19.792a8.408,8.408,0,0,0,8.4-8.4V8.4A8.408,8.408,0,0,0,19.792,0Zm5.562,19.792a5.562,5.562,0,0,1-5.562,5.562H8.4a5.562,5.562,0,0,1-5.562-5.562V8.4A5.562,5.562,0,0,1,8.4,2.836H19.792A5.562,5.562,0,0,1,25.354,8.4V19.792Z" transform="translate(0 0)" fill="#7a5f63"/><path d="M140.291,133a7.291,7.291,0,1,0,7.291,7.291A7.3,7.3,0,0,0,140.291,133Zm0,11.746a4.455,4.455,0,1,1,4.455-4.455A4.455,4.455,0,0,1,140.291,144.746Z" transform="translate(-126.196 -126.196)" fill="#7a5f63"/><circle cx="1.747" cy="1.747" r="1.747" transform="translate(19.653 5.112)" fill="#7a5f63"/></g></g></svg>