<svg xmlns="http://www.w3.org/2000/svg" width="32" height="32" viewBox="0 0 32 32"><g transform="translate(-6027 12655)"><rect width="32" height="32" transform="translate(6027 -12655)" fill="none"/><g transform="translate(6028.208 -12682.999)"><path d="M29.123,51.816,17.807,32.767a3.465,3.465,0,0,0-6.032-.017L.445,51.834A3.471,3.471,0,0,0,3.461,57H26.124a3.464,3.464,0,0,0,3-5.183Z" transform="translate(0 0)" fill="#ffd400"/><path d="M270.314,55.283A3.428,3.428,0,0,1,267.333,57H256V31a3.42,3.42,0,0,1,3.016,1.768l11.316,19.049A3.443,3.443,0,0,1,270.314,55.283Z" transform="translate(-241.209 0)" fill="#fdbf00"/><g transform="translate(13.449 38.171)"><rect width="3" height="4" transform="translate(-0.448 10.828)" fill="#4a696f"/><rect width="3" height="9" transform="translate(-0.448 -0.172)" fill="#4a696f"/></g><g transform="translate(15.242 38.171)"><rect width="1" height="9" transform="translate(-0.241 -0.172)" fill="#3e5959"/><rect width="1" height="4" transform="translate(-0.241 10.828)" fill="#3e5959"/></g></g></g></svg>