<svg xmlns="http://www.w3.org/2000/svg" width="32" height="32" viewBox="0 0 32 32"><g transform="translate(-5990 12655)"><rect width="32" height="32" transform="translate(5990 -12655)" fill="none"/><g transform="translate(5992.651 -12652.35)"><circle cx="13.349" cy="13.349" r="13.349" transform="translate(0 0)" fill="#32ba7c"/><path d="M188.8,163.37l6.864,6.864a13.34,13.34,0,0,0,9.9-12.886v-.379L200.17,152Z" transform="translate(-178.862 -143.999)" fill="#0aa06e"/><g transform="translate(4.485 6.59)"><path d="M94.4,205.432a1.577,1.577,0,0,1,0,2.19l-1.221,1.221a1.577,1.577,0,0,1-2.19,0l-5.348-5.39a1.577,1.577,0,0,1,0-2.19l1.221-1.221a1.577,1.577,0,0,1,2.19,0Z" transform="translate(-85.2 -195.684)" fill="#fff"/><path d="M174.107,125.642a1.577,1.577,0,0,1,2.19,0l1.221,1.221a1.577,1.577,0,0,1,0,2.19l-9.264,9.222a1.577,1.577,0,0,1-2.19,0l-1.221-1.221a1.577,1.577,0,0,1,0-2.19Z" transform="translate(-160.231 -125.2)" fill="#fff"/></g></g></g></svg>