<svg xmlns="http://www.w3.org/2000/svg" xmlns:xlink="http://www.w3.org/1999/xlink" width="513.989" height="235.598" viewBox="0 0 513.989 235.598">
  <defs>
    <linearGradient id="linear-gradient" x1="0.405" y1="1.083" x2="0.571" y2="0.014" gradientUnits="objectBoundingBox">
      <stop offset="0" stop-color="#30269c"/>
      <stop offset="0.222" stop-color="#153da9"/>
      <stop offset="0.375" stop-color="#0050b4"/>
      <stop offset="0.475" stop-color="#0070c7"/>
      <stop offset="0.613" stop-color="#0099e0"/>
      <stop offset="0.684" stop-color="#00a9ea"/>
      <stop offset="1" stop-color="#00a9ea"/>
    </linearGradient>
  </defs>
  <g id="Group_4591" data-name="Group 4591" transform="translate(-321.333 -298.126)">
    <g id="Group_4586" data-name="Group 4586">
      <path id="Path_19072" data-name="Path 19072" d="M416.029,533.724h-1.654V498.971c0-7.875-1.024-9.214-6.221-9.214V488.1l11.812-1.97v23.335a12.1,12.1,0,0,1,9.609-4.646c7.481,0,13.624,6.457,13.624,14.411s-6.143,14.49-13.624,14.49a12.248,12.248,0,0,1-10.081-5.274Zm3.937-9.45c1.418,3.781,4.332,6.3,7.955,6.3,6.142,0,8.978-5.04,8.978-11.341s-2.836-11.26-8.978-11.26c-3.623,0-6.537,2.519-7.955,6.22Z" fill="#fff"/>
      <path id="Path_19073" data-name="Path 19073" d="M449.261,532.386v-1.653c5.2,0,6.222-1.34,6.222-9.215V517.58c0-7.874-1.024-9.135-6.222-9.135v-1.653l11.813-1.969v16.7c0,7.875.946,9.215,6.222,9.215v1.653Zm8.978-34.112a3.5,3.5,0,1,1,3.465-3.544A3.513,3.513,0,0,1,458.239,498.274Z" fill="#fff"/>
      <path id="Path_19074" data-name="Path 19074" d="M494.15,513.407a2.861,2.861,0,0,1-2.757-2.835,2.34,2.34,0,0,0-2.519-2.6c-1.811,0-6.065,2.914-6.065,9.213v4.331c0,7.875.946,9.215,6.222,9.215v1.653H471v-1.653c5.2,0,6.221-1.34,6.221-9.215V517.58c0-7.874-1.024-9.135-6.221-9.135v-1.653l10.474-1.969a31.886,31.886,0,0,1,1.338,5.67c1.576-3.15,5.12-5.67,8.27-5.67,4.331,0,6.222,2.914,6.222,4.883C497.3,511.438,496.591,513.407,494.15,513.407Z" fill="#fff"/>
      <path id="Path_19075" data-name="Path 19075" d="M523.68,498.971c0-7.875-.945-9.214-6.222-9.214V488.1l11.814-1.97v34.755c0,7.874,1.024,9.213,6.221,9.213v1.654l-10.474,1.968a30.194,30.194,0,0,1-1.26-4.8,12.03,12.03,0,0,1-9.687,4.8c-7.481,0-13.7-6.536-13.7-14.49s6.221-14.411,13.7-14.411a12.091,12.091,0,0,1,9.608,4.646Zm0,15.223c-1.417-3.7-4.409-6.22-7.954-6.22-6.142,0-8.977,4.96-8.977,11.26s2.835,11.341,8.977,11.341c3.545,0,6.537-2.52,7.954-6.221Z" fill="#fff"/>
      <path id="Path_19076" data-name="Path 19076" d="M540.059,498.587a3.821,3.821,0,0,1,0-7.639c2.047,0,4.252,1.5,4.252,5.04,0,3.465-2.362,8.742-7.245,11.814l-.867-.867c2.914-3.072,4.018-5.356,4.489-8.427A1.721,1.721,0,0,1,540.059,498.587Z" fill="#fff"/>
      <path id="Path_19077" data-name="Path 19077" d="M554.156,533.724c-5.434,0-8.427-5.59-8.427,0h-1.575v-11.5h1.575c0,3.544,2.993,8.821,8.663,8.821a4.183,4.183,0,0,0,4.41-4.017c0-1.969-1.654-3.386-4.41-4.8l-4.332-2.362c-3.859-2.048-5.277-5.355-5.277-7.876,0-4.252,3.939-7.166,8.033-7.166,5.907,0,7.087,4.094,7.087,0h1.655v9.134H559.9a6.4,6.4,0,0,0-6.378-6.614c-2.678,0-4.016,1.417-4.016,3.387,0,1.89,1.338,2.912,4.8,4.8l3.779,2.047c3.466,1.97,5.434,4.726,5.434,7.561C563.526,530.338,559.274,533.724,554.156,533.724Z" fill="#fff"/>
      <path id="Path_19078" data-name="Path 19078" d="M597.7,504.823c7.089,0,10.239,5.039,10.239,11.733v4.962c0,7.875.944,9.215,6.221,9.215v1.653H596.128v-1.653c5.119,0,6.222-1.34,6.222-9.215v-4.567c0-5.119-1.811-8.427-6.535-8.427-4.333,0-9.058,3.544-9.058,7.875v5.119c0,8.111.631,9.215,5.513,9.215v1.653H574.944v-1.653c5.2,0,6.221-1.34,6.221-9.215V517.58c0-7.874-1.022-9.135-6.221-9.135v-1.653l10.474-1.969a31.97,31.97,0,0,1,1.339,5.67A13.978,13.978,0,0,1,597.7,504.823Z" fill="#fff"/>
      <path id="Path_19079" data-name="Path 19079" d="M633.14,530.418a14.68,14.68,0,0,0,8.664-3.623l1.338,1.733a17.663,17.663,0,0,1-11.97,5.2,14.132,14.132,0,0,1-14.569-14.49,14.65,14.65,0,0,1,14.569-14.411c6.93,0,12.522,5.67,10.711,12.443h-19.06C621.88,524.669,624.95,530.418,633.14,530.418Zm3.23-16.066c.866-2.52-.394-6.378-5.592-6.378-3.466,0-6.3,2.519-7.4,6.378Z" fill="#fff"/>
      <path id="Path_19080" data-name="Path 19080" d="M669.918,488.128c7.639,0,12.6,4.646,12.6,12.128v5.9h6.852v2.756h-6.852v15.909c0,3.779,1.1,5.749,3.545,5.749,1.495,0,3.385-1.024,5.118-2.756l1.339,1.338c-2.206,2.678-5.671,4.567-8.269,4.567-4.332,0-7.324-2.755-7.324-8.9V508.917h-4.1v-1.889c4.725-1.025,6.3-5.2,6.3-8.82,0-3.86-2.914-8.191-9.295-8.191-5.905,0-13.151,5.593-7.874,15.279,2.283,1.023,4.174,2.205,4.174,4.566A2.61,2.61,0,0,1,663.3,512.3c-1.5,0-3.071-1.339-4.017-3.309-.235-.472-.551-1.259-.866-2.047h-.551a3.677,3.677,0,0,0-3.937,3.781c0,1.89,1.338,2.912,4.8,4.8l3.78,2.047c3.465,1.97,5.435,4.726,5.435,7.561,0,5.2-4.253,8.583-9.372,8.583-5.435,0-8.427-5.59-8.427,0h-1.575v-11.5h1.575c0,3.544,2.992,8.821,8.663,8.821a4.183,4.183,0,0,0,4.41-4.017c0-1.969-1.655-3.386-4.41-4.8l-4.332-2.362c-3.858-2.048-5.276-5.355-5.276-7.876,0-4.252,3.937-7.166,8.032-7.166h.473C654.875,493.639,662.673,488.128,669.918,488.128Z" fill="#fff"/>
    </g>
    <g id="Group_4587" data-name="Group 4587">
      <path id="Path_19081" data-name="Path 19081" d="M833.486,333.567c-6.5,2.185-14.051,2.426-19.255-2.544A29.386,29.386,0,0,0,791.75,320.7c-20.6-1.615-25.832-23.26-50.038-22.558-26.977-.422-30.8,19.248-49.194,22.1a32.073,32.073,0,0,0-14.811,5.892c-7.817,6.228-6.013,10.087-19.055,10.117-4.154.923,3.233,13.1,15.43,13.522,5.308.182,7.222,2.052,9.2,4.137a29.111,29.111,0,0,0,7.493,5.99s-7.418,1.523-11.182,3.932c-7.673,4.911-6.181,6.259-13.658,8.085-6.283,1.534-8.3-.994-15.53,1.8a29.211,29.211,0,0,0-11.973,8.992,1.263,1.263,0,0,0,1.242,2c21.791-3.9,23.312,11.62,33.645,17.708,12.128,7.146,20.166,4.152,28.169,9.412,9.329,6.134,16.38,15.615,33.036,15.615,28.6,0,30.961-16.791,47.731-22.033,12.066-3.769,16.667-8.176,24.312-16.145,6.775-7.066,14.994-2.549,13.958-6.467-1.235-4.678-4.551-6.722-7.685-8.323-7.445-3.8-10.279-2.125-16.105-4.159-3.451-1.205-5.222-3.052-7.125-4.667a24.344,24.344,0,0,0-6.072-3.3s6.448.16,11.049-1.517c5.418-1.975,9.84-6.4,12.6-8.837,11.758-10.393,19.837-.88,28.027-16.926C835.7,334.118,834.479,333.147,833.486,333.567Zm-40.9,9.808c-3.4,3.72-11.782,5.453-26.391,5.453-2.547,0-4.683,1.216-7.159,2.624-2.933,1.668-6.257,3.557-10.969,3.871-8.046.535-14.5-4.729-15-12.239a11.733,11.733,0,0,1,10.918-12.469,9.82,9.82,0,0,1,10.448,9.147,2.223,2.223,0,0,1-4.437.3,5.375,5.375,0,0,0-5.718-5.007,7.282,7.282,0,0,0-6.774,7.739c.336,5.064,4.659,8.469,10.265,8.1,3.694-.245,6.3-1.728,9.064-3.3s5.636-3.2,9.358-3.2c16.078,0,21.441-2.178,23.107-4.005a1.956,1.956,0,0,0,.574-1.628c-.26-2.849-9.3-3.885-13.642-4.383-1.5-.171-2.913-.334-4.053-.527-6.362-1.077-9.812-4.462-13.147-7.735-3.816-3.744-7.419-7.28-15.88-7.28-10.341,0-16.338,5.323-21.63,10.019a49.544,49.544,0,0,1-6.293,5.024c-7.051,4.43-10.163,5.448-20,6.733,5.3,4.7,20.5,14.066,43.256,18.355,17.749,3.346,29.312,8.4,35.886,12.049,3.9,2.165,12.952,7.747,12.784,12.793a2.224,2.224,0,0,1-2.344,2.145c-.1-.01-10.78-.467-18.78,5.834a44.892,44.892,0,0,0-4.606,4.572c-5.581,6.034-13.225,14.3-26.463,14.3-11.629,0-17.237-5.538-21.743-9.986-2.68-2.648-5-4.933-8.04-5.492-7.1-1.306-13.241-2.432-17.167-4.081-1.728-.726-6.985-2.933-6.095-9.094.754-5.22,7.812-5.609,15.285-6.02,4.745-.263,9.649-.532,13.135-1.861a60.353,60.353,0,0,0,6-2.742c3.69-1.867,7.181-3.629,13.074-4.02,7.9-.518,14.488,5.046,14.995,12.683a11.4,11.4,0,0,1-10.471,12.469,10.556,10.556,0,0,1-7.28-2.358,9.543,9.543,0,0,1-3.615-6.79,2.223,2.223,0,0,1,4.437-.295,5.146,5.146,0,0,0,1.984,3.636,6.047,6.047,0,0,0,4.18,1.37,6.555,6.555,0,0,0,4.716-2.4,7.6,7.6,0,0,0,1.614-5.332,9.347,9.347,0,0,0-10.266-8.542c-4.992.331-7.8,1.753-11.363,3.552a65.268,65.268,0,0,1-6.417,2.928c-4.135,1.575-9.391,1.866-14.475,2.144-4.074.226-10.894.6-11.128,2.22-.561,3.882,3.687,5.23,19.664,8.164,4.39.806,7.291,3.67,10.361,6.7,4.334,4.278,8.816,8.7,18.619,8.7,11.293,0,17.9-7.137,23.2-12.871a48.235,48.235,0,0,1,5.116-5.047c6.3-4.958,13.768-6.326,18.124-6.681a37.274,37.274,0,0,0-9.542-6.9c-6.263-3.427-17.281-8.182-34.2-11.372-27.422-5.17-47.435-18.606-48.757-23.908a2.22,2.22,0,0,1,1.89-2.744c13.028-1.572,15.091-2.186,22.067-6.57a46.646,46.646,0,0,0,5.708-4.584c5.59-4.962,12.553-11.14,24.58-11.14,10.278,0,14.908,4.544,18.994,8.553,3.108,3.047,5.787,5.681,10.773,6.525,1.025.174,2.381.329,3.816.494,7.165.82,16.976,1.944,17.568,8.393A6.428,6.428,0,0,1,792.585,343.375Z" fill="url(#linear-gradient)"/>
    </g>
    <g id="Group_4589" data-name="Group 4589">
      <g id="Group_4588" data-name="Group 4588">
        <path id="Path_19082" data-name="Path 19082" d="M354.574,436.049a27.984,27.984,0,0,0-13.4-3.713c-5.164,0-8.2,2.083-8.2,5.163,0,3.034,3.171,3.894,7.156,4.483l4.483.679c9.466,1.359,15.081,5.389,15.081,12.817,0,8.333-7.246,14.175-19.745,14.175-4.484,0-12.274-.86-18.613-5.57l4.392-7.111c3.125,2.4,7.246,4.439,14.311,4.439,6.476,0,9.873-2.038,9.873-5.3,0-2.445-2.355-4.076-7.518-4.8l-4.529-.589c-9.6-1.313-14.718-5.751-14.718-12.725,0-8.605,6.884-13.9,17.934-13.9,6.793,0,13.088,1.676,17.572,4.575Z" fill="#fff"/>
        <path id="Path_19083" data-name="Path 19083" d="M412.494,468.566h-9.466v-5.208c-2.988,3.85-7.472,6.34-13.631,6.34-12.138,0-21.693-9.556-21.693-22.825s9.555-22.826,21.693-22.826a16.488,16.488,0,0,1,13.631,6.386V425.18h9.466Zm-35.053-21.693c0,7.608,4.936,13.9,13.088,13.9,7.835,0,13.088-5.978,13.088-13.9s-5.253-13.9-13.088-13.9C382.377,432.969,377.441,439.264,377.441,446.873Z" fill="#fff"/>
        <path id="Path_19084" data-name="Path 19084" d="M498.537,441.3v27.264h-9.51V444.427c0-7.291-3.759-11.367-10.1-11.367-6.113,0-11.231,4.03-11.231,11.458v24.048h-9.511V444.427c0-7.291-3.759-11.367-10.1-11.367-6.115,0-11.232,4.03-11.232,11.458v24.048h-9.511V425.18h9.42v5.3c3.488-5.118,8.876-6.432,13.315-6.432,6.612,0,12,2.945,14.99,7.745,3.759-6.2,10.462-7.745,15.852-7.745C491.246,424.047,498.537,431.158,498.537,441.3Z" fill="#fff"/>
        <path id="Path_19085" data-name="Path 19085" d="M557.677,446.873c0,13.269-9.555,22.825-21.693,22.825-6.159,0-10.6-2.49-13.586-6.295v5.163h-9.465V403.351H522.4v26.991c2.989-3.8,7.427-6.3,13.586-6.3C548.122,424.047,557.677,433.6,557.677,446.873Zm-35.913,0c0,7.925,5.253,13.9,13.088,13.9,8.152,0,13.088-6.3,13.088-13.9s-4.936-13.9-13.088-13.9C527.017,432.969,521.764,438.948,521.764,446.873Z" fill="#fff"/>
        <path id="Path_19086" data-name="Path 19086" d="M612.064,446.873c0,13-9.963,22.825-23.368,22.825s-23.323-9.827-23.323-22.825,9.918-22.826,23.323-22.826S612.064,433.876,612.064,446.873Zm-36.955,0c0,8.2,5.843,13.9,13.587,13.9s13.632-5.706,13.632-13.9-5.888-13.9-13.632-13.9S575.109,438.676,575.109,446.873Z" fill="#fff"/>
        <path id="Path_19087" data-name="Path 19087" d="M633.572,473.91c0,8.922-5.254,13.632-12.727,13.632a16.8,16.8,0,0,1-6.566-1.314l2.219-8.242a10.126,10.126,0,0,0,3.487.634c2.265,0,4.076-1.45,4.076-5.162V425.18h9.511Zm1.856-63.72a6.555,6.555,0,0,1-6.7,6.611,6.478,6.478,0,0,1-6.611-6.611,6.554,6.554,0,0,1,6.611-6.7A6.631,6.631,0,0,1,635.428,410.19Z" fill="#fff"/>
        <path id="Path_19088" data-name="Path 19088" d="M689.183,468.566h-9.465v-5.208c-2.989,3.85-7.472,6.34-13.631,6.34-12.137,0-21.693-9.556-21.693-22.825s9.556-22.826,21.693-22.826a16.489,16.489,0,0,1,13.631,6.386V425.18h9.465ZM654.13,446.873c0,7.608,4.937,13.9,13.089,13.9,7.835,0,13.088-5.978,13.088-13.9s-5.253-13.9-13.088-13.9C659.067,432.969,654.13,439.264,654.13,446.873Z" fill="#fff"/>
      </g>
    </g>
  </g>
</svg>
