<svg xmlns="http://www.w3.org/2000/svg" width="512" height="512" viewBox="0 0 512 512"><path d="M465.535.32C465,.277,464.555,0,464,0H234.668a64.078,64.078,0,0,0-64,64V85.332a21.332,21.332,0,1,0,42.664,0V64a21.368,21.368,0,0,1,21.336-21.332h99.391l-6.508,2.176a42.886,42.886,0,0,0-28.883,40.488v320h-64A21.368,21.368,0,0,1,213.332,384V341.332a21.332,21.332,0,0,0-42.664,0V384a64.078,64.078,0,0,0,64,64h64v21.332A42.708,42.708,0,0,0,341.332,512a44.756,44.756,0,0,0,13.59-2.113l128.172-42.73A42.876,42.876,0,0,0,512,426.668v-384C512,17.793,490.559-1.707,465.535.32Zm0,0" fill="#fff"/><path d="M228.414,198.25l-85.332-85.332A21.326,21.326,0,0,0,106.668,128v64H21.332a21.334,21.334,0,0,0,0,42.668h85.336v64a21.326,21.326,0,0,0,36.414,15.082l85.332-85.336A21.3,21.3,0,0,0,228.414,198.25Zm0,0" fill="#fff"/></svg>