<svg xmlns="http://www.w3.org/2000/svg" width="490" height="479.957" viewBox="0 0 490 479.957"><g transform="translate(-11 -16.022)"><path d="M320.494,472.277A111.046,111.046,0,0,1,347.688,301.2a150.073,150.073,0,0,0-31.251-9.657,158.642,158.642,0,0,1-182.718-.009A151.792,151.792,0,0,0,11,440.509a55.533,55.533,0,0,0,55.47,55.47H351.1a111.209,111.209,0,0,1-30.6-23.7Z" fill="#fff"/><circle cx="145.89" cy="145.89" r="145.89" transform="translate(79.188 16.022)" fill="#fff"/><path d="M402.683,299.344A98.317,98.317,0,1,0,501,397.661a98.317,98.317,0,0,0-98.317-98.317Zm56.453,121.531H425.9v33.238a23.214,23.214,0,1,1-46.428,0V420.875H346.23a23.214,23.214,0,1,1,0-46.428h33.239V341.209a23.214,23.214,0,1,1,46.428,0v33.239h33.238a23.214,23.214,0,1,1,0,46.428Z" fill="#fff"/></g></svg>